# xmcd
# 
# Track frame offsets:
#     182
#     11032
#     27537
#     49545
#     64617
#     86832
#     106352
#     120655
#     155470
# 
# Disc length: 2257
# 
# Revision: 6
# Processed by: cddbd v1.5.2PL0 Copyright (c) Steve Scherf et al.
# Submitted via: fre:ac v1.0.31
# 
DISCID=6f08cf09
DTITLE=Savoy Brown - Raw Sienna
DYEAR=1970
DGENRE=Blues
TTITLE0=A Hard Way to Go
TTITLE1=That Same Feelin'
TTITLE2=Master Hare
TTITLE3=Needle and Spoon
TTITLE4=A Little More Wine
TTITLE5=I'm Crying
TTITLE6=Stay While the Night Is Young
TTITLE7=Is That So
TTITLE8=When I Was a Young Boy
EXTD=YEAR: 1970
EXTT0=
EXTT1=
EXTT2=
EXTT3=
EXTT4=
EXTT5=
EXTT6=
EXTT7=
EXTT8=
PLAYORDER=
